<?xml version="1.0" encoding="UTF-8"?>
<!DOCTYPE svg PUBLIC "-//W3C//DTD SVG 1.1//EN" "http://www.w3.org/Graphics/SVG/1.1/DTD/svg11.dtd">
<!-- Creator: CorelDRAW 2021.5 -->
<svg xmlns="http://www.w3.org/2000/svg" xml:space="preserve" width="9.1969mm" height="7.9418mm" version="1.1" style="shape-rendering:geometricPrecision; text-rendering:geometricPrecision; image-rendering:optimizeQuality; fill-rule:evenodd; clip-rule:evenodd"
viewBox="0 0 919.16 793.72"
 xmlns:xlink="http://www.w3.org/1999/xlink"
 xmlns:xodm="http://www.corel.com/coreldraw/odm/2003">
 <defs>
  <style type="text/css">
   <![CDATA[
    .fil0 {fill:#FEFEFE}
   ]]>
  </style>
 </defs>
 <g id="Layer_x0020_1">
  <metadata id="CorelCorpID_0Corel-Layer"/>
  <path class="fil0" d="M864.55 478.96c33.69,-13.94 54.61,-45.31 54.61,-82.1 0,-36.4 -20.91,-68.16 -54.61,-82.1l-741.63 -307.88c-31.75,-13.16 -67,-6.97 -92.17,14.71 -25.56,22.08 -36.4,56.16 -27.88,89.07l65.83 259.09 323.37 0c14.71,0 27.1,12 27.1,27.1 0,14.71 -12,27.1 -27.1,27.1l-323.37 0 -65.83 259.09c-8.52,32.92 2.32,67 27.88,89.07 25.95,22.46 61.57,27.49 92.17,14.71l741.63 -307.88 0 0.02z"/>
 </g>
</svg>
