<svg width="149" height="34" viewBox="0 0 149 34" fill="none" xmlns="http://www.w3.org/2000/svg">
<path d="M13.916 24.4639C13.916 27.0159 12.64 28.8639 9.95604 28.8639C7.27204 28.8639 6.04004 27.0159 5.99604 24.4639H0.936035C0.936035 30.0079 4.67604 33.3079 9.95604 33.3079C15.236 33.3079 18.976 30.0079 18.976 24.4639V2.41994H13.916V24.4639Z" fill="#181E4B"/>
<path d="M25.464 20.7679C25.464 28.2479 30.524 33.3959 36.816 33.3959C40.864 33.3959 43.768 31.4599 45.308 29.3919V32.9999H50.368V8.75594H45.308V12.2759C43.812 10.2959 40.996 8.35994 36.904 8.35994C30.524 8.35994 25.464 13.2879 25.464 20.7679ZM45.308 20.8559C45.308 26.0919 41.744 29.0399 37.96 29.0399C34.22 29.0399 30.612 26.0039 30.612 20.7679C30.612 15.5319 34.22 12.7159 37.96 12.7159C41.744 12.7159 45.308 15.6639 45.308 20.8559Z" fill="#181E4B"/>
<path d="M55.2843 20.7679C55.2843 28.2479 60.3443 33.3959 66.7243 33.3959C70.6843 33.3959 73.5883 31.5479 75.1283 29.3479V32.9999H80.1883V0.439941H75.1283V12.1439C73.2803 9.85594 69.9363 8.35994 66.7683 8.35994C60.3443 8.35994 55.2843 13.2879 55.2843 20.7679ZM75.1283 20.8559C75.1283 26.0919 71.5643 29.0399 67.7803 29.0399C64.0403 29.0399 60.4323 26.0039 60.4323 20.7679C60.4323 15.5319 64.0403 12.7159 67.7803 12.7159C71.5643 12.7159 75.1283 15.6639 75.1283 20.8559Z" fill="#181E4B"/>
<path d="M109.877 20.8559C109.877 13.2439 104.421 8.35994 97.5126 8.35994C90.6046 8.35994 85.1486 13.2439 85.1486 20.8559C85.1486 28.4679 90.3846 33.3959 97.2926 33.3959C104.245 33.3959 109.877 28.4679 109.877 20.8559ZM90.2526 20.8559C90.2526 15.3559 93.6406 12.7159 97.4246 12.7159C101.165 12.7159 104.729 15.3559 104.729 20.8559C104.729 26.3559 101.033 29.0399 97.2926 29.0399C93.5086 29.0399 90.2526 26.3559 90.2526 20.8559Z" fill="#181E4B"/>
<path d="M137.935 20.8559C137.935 13.2439 132.479 8.35994 125.571 8.35994C118.663 8.35994 113.207 13.2439 113.207 20.8559C113.207 28.4679 118.443 33.3959 125.351 33.3959C132.303 33.3959 137.935 28.4679 137.935 20.8559ZM118.311 20.8559C118.311 15.3559 121.699 12.7159 125.483 12.7159C129.223 12.7159 132.787 15.3559 132.787 20.8559C132.787 26.3559 129.091 29.0399 125.351 29.0399C121.567 29.0399 118.311 26.3559 118.311 20.8559Z" fill="#181E4B"/>
<path d="M148.086 30.0959C148.086 28.2919 146.678 26.8839 144.918 26.8839C143.114 26.8839 141.706 28.2919 141.706 30.0959C141.706 31.8999 143.114 33.3079 144.918 33.3079C146.678 33.3079 148.086 31.8999 148.086 30.0959Z" fill="#181E4B"/>
</svg>
