<svg width="374" height="276" viewBox="0 0 374 276" fill="none" xmlns="http://www.w3.org/2000/svg">
<path fill-rule="evenodd" clip-rule="evenodd" d="M5.4658 243.202C5.4658 312.359 61.4492 368.42 130.505 368.42C199.561 368.42 255.545 312.359 255.545 243.202C255.545 174.045 199.561 117.984 130.505 117.984C61.4492 117.984 5.4658 174.045 5.4658 243.202ZM4.4658 243.202C4.4658 312.91 60.8956 369.42 130.505 369.42C200.115 369.42 256.545 312.91 256.545 243.202C256.545 173.494 200.115 116.984 130.505 116.984C60.8956 116.984 4.4658 173.494 4.4658 243.202Z" fill="#6246E5" fill-opacity="0.2"/>
<path fill-rule="evenodd" clip-rule="evenodd" d="M3.80749 233.237C3.80749 310.65 66.4733 373.402 143.773 373.402C221.072 373.402 283.738 310.65 283.738 233.237C283.738 155.825 221.072 93.0728 143.773 93.0727C66.4734 93.0727 3.80749 155.825 3.80749 233.237ZM2.80749 233.237C2.80749 311.2 65.9197 374.402 143.773 374.402C221.626 374.402 284.738 311.201 284.738 233.237C284.738 155.274 221.626 92.0728 143.773 92.0727C65.9197 92.0727 2.80749 155.274 2.80749 233.237Z" fill="#6246E5" fill-opacity="0.2"/>
<path fill-rule="evenodd" clip-rule="evenodd" d="M1.31976 224.934C1.31975 309.684 69.9256 378.385 154.552 378.385C239.179 378.385 307.785 309.684 307.785 224.934C307.785 140.184 239.179 71.4832 154.552 71.4831C69.9256 71.4831 1.31976 140.184 1.31976 224.934ZM0.319756 224.934C0.319753 310.235 69.372 379.385 154.552 379.385C239.732 379.385 308.785 310.235 308.785 224.934C308.785 139.633 239.732 70.4832 154.552 70.4831C69.372 70.4831 0.31976 139.633 0.319756 224.934Z" fill="#6246E5" fill-opacity="0.2"/>
<path fill-rule="evenodd" clip-rule="evenodd" d="M5.46621 216.63C5.46621 307.801 79.2695 381.706 170.308 381.706C261.346 381.706 335.149 307.801 335.149 216.63C335.149 125.46 261.346 51.5542 170.308 51.5542C79.2695 51.5542 5.46621 125.46 5.46621 216.63ZM4.46621 216.63C4.46621 308.352 78.7159 382.706 170.308 382.706C261.899 382.706 336.149 308.352 336.149 216.63C336.149 124.909 261.899 50.5542 170.308 50.5542C78.7159 50.5542 4.46621 124.909 4.46621 216.63Z" fill="#6246E5" fill-opacity="0.2"/>
<path fill-rule="evenodd" clip-rule="evenodd" d="M9.61205 208.742C9.61205 306.103 88.4272 385.028 185.648 385.028C282.868 385.028 361.683 306.103 361.683 208.742C361.683 111.38 282.868 32.4553 185.648 32.4553C88.4272 32.4553 9.61206 111.38 9.61205 208.742ZM8.61205 208.742C8.61205 306.654 87.8736 386.028 185.648 386.028C283.422 386.028 362.683 306.654 362.683 208.742C362.683 110.829 283.422 31.4553 185.648 31.4553C87.8736 31.4553 8.61206 110.829 8.61205 208.742Z" fill="#6246E5" fill-opacity="0.2"/>
<path fill-rule="evenodd" clip-rule="evenodd" d="M9.61205 195.456C9.61205 302.448 96.2234 389.18 203.061 389.18C309.899 389.18 396.51 302.448 396.51 195.456C396.51 88.4634 309.899 1.73144 203.061 1.73144C96.2234 1.73143 9.61206 88.4634 9.61205 195.456ZM8.61205 195.456C8.61205 302.999 95.6698 390.18 203.061 390.18C310.452 390.18 397.51 302.999 397.51 195.456C397.51 87.9124 310.452 0.731442 203.061 0.731437C95.6698 0.731432 8.61206 87.9124 8.61205 195.456Z" fill="#6246E5" fill-opacity="0.2"/>
</svg>
