<?xml version="1.0" encoding="UTF-8"?>
<!DOCTYPE svg PUBLIC "-//W3C//DTD SVG 1.1//EN" "http://www.w3.org/Graphics/SVG/1.1/DTD/svg11.dtd">
<!-- Creator: CorelDRAW 2021.5 -->
<svg xmlns="http://www.w3.org/2000/svg" xml:space="preserve" width="31.181mm" height="12.6125mm" version="1.1" style="shape-rendering:geometricPrecision; text-rendering:geometricPrecision; image-rendering:optimizeQuality; fill-rule:evenodd; clip-rule:evenodd"
viewBox="0 0 3113.17 1259.25"
 xmlns:xlink="http://www.w3.org/1999/xlink"
 xmlns:xodm="http://www.corel.com/coreldraw/odm/2003">
 <defs>
  <style type="text/css">
   <![CDATA[
    .fil1 {fill:#029BC5;fill-rule:nonzero}
    .fil3 {fill:#3A556A;fill-rule:nonzero}
    .fil0 {fill:#D5D6DB;fill-rule:nonzero}
    .fil2 {fill:#E1E6E9;fill-rule:nonzero}
   ]]>
  </style>
 </defs>
 <g id="Слой_x0020_1">
  <metadata id="CorelCorpID_0Corel-Layer"/>
  <g id="_1429445425952">
   <path class="fil0" d="M1727.74 883.09c-35.31,-10.29 -73.1,-14.15 -111.03,-11.32 -98.18,6.21 -176.91,48.96 -175.82,95.49 1.09,46.52 81.58,79.19 179.77,72.98 37.95,-1.98 75.45,-10.58 110.16,-25.28 16.4,-7.31 26.71,-22.01 26.34,-37.43l-1.43 -60.44c-0.32,-15.47 -11.3,-28.79 -27.98,-34z"/>
   <path class="fil0" d="M1889.79 158.11c-25.6,-7.47 -53,-10.25 -80.49,-8.21 -71.2,4.5 -128.28,35.49 -127.49,69.2 0.77,33.71 59.18,57.4 130.34,52.9 27.53,-1.44 54.7,-7.69 79.88,-18.34 11.88,-5.3 19.33,-15.94 19.07,-27.14l-1.03 -43.76c-0.21,-11.2 -8.19,-20.88 -20.29,-24.65z"/>
   <path class="fil1" d="M1578.99 20.72c-4.76,-3.36 -10.91,-4.99 -17.25,-4.58l-167.2 10.57c-13.98,0.86 -25.1,11.23 -24.84,23.18 0.05,2.74 0.72,5.41 1.96,7.88l188.94 378.35 557.51 -35.26 -539.12 -380.14z"/>
   <path class="fil2" d="M2899.35 710.48l-1512.41 87.29 -809.92 -102.18 -375.83 -119.55 -2.33 -83.87 2508.47 -122.85c74.84,-3.8 148.64,9.25 214,37.84 28.52,12.67 54.92,28.41 78.59,46.87 21.06,16.16 39.15,34.92 53.76,55.71 16.19,23.36 57.9,48.05 59.49,77.67 0.08,0 -23.32,119.06 -213.81,123.07z"/>
   <path class="fil1" d="M1453.4 712.48l-912.74 506.18c-12.07,7.54 -15.19,21.7 -6.98,31.65 5.04,6.1 13.48,9.44 22.42,8.88l166.87 -10.19c32.1,-1.99 63.73,-9.53 92.92,-22.19l1552.64 -587.55 -915.13 73.23z"/>
   <path class="fil1" d="M242.28 10.51c-6.57,-7.24 -17,-11.12 -28,-10.43l-138.08 8.7c-18.81,1.18 -33.76,15.16 -33.39,31.21 0.07,3.06 0.7,6.06 1.87,8.89l159.77 387.22 404.71 -21.93 -366.88 -403.65z"/>
   <path class="fil1" d="M277.59 530.36l-273.14 130.77c-3.96,1.86 -5.58,6.04 -3.6,9.35 1.42,2.39 4.41,3.74 7.61,3.47l128.87 -7.83c1,-0.06 2,-0.28 2.93,-0.64l376.16 -149.51 -238.82 14.39z"/>
   <path class="fil1" d="M2976.34 453.17c-24.33,-19.02 -51.54,-35.22 -80.94,-48.23 -48.39,23.11 -89.52,56.38 -119.29,96.48 -5.23,8.47 -1.67,18.61 7.95,22.64 3.02,1.26 6.37,1.82 9.77,1.62l237.77 -14.96c-14.98,-21.5 -33.58,-40.87 -55.26,-57.55z"/>
   <polygon class="fil0" points="2479.19,447.63 2634.12,438.47 2640.7,679.51 2485.76,688.68 "/>
   <path class="fil3" d="M2367.18 479.72c-18.67,1.14 -33.52,14.94 -33.13,30.84l0.64 25.75c1.03,15.84 17.01,27.35 35.66,25.68 17.77,-1.6 31.75,-14.6 31.99,-29.77l-0.64 -25.76c-0.39,-15.88 -15.84,-27.86 -34.53,-26.74z"/>
   <path class="fil3" d="M2228.55 486.88c-18.68,1.13 -33.53,14.93 -33.13,30.83l0.64 25.75c1.03,15.85 16.98,27.35 35.66,25.68 17.77,-1.6 31.75,-14.6 31.99,-29.77l-0.67 -25.76c-0.39,-15.88 -15.84,-27.85 -34.5,-26.73z"/>
   <path class="fil3" d="M2089.86 494.03c-18.67,1.15 -33.5,14.95 -33.1,30.83l0.66 25.75c1.03,15.85 16.99,27.35 35.66,25.68 17.75,-1.6 31.73,-14.6 31.97,-29.77l-0.64 -25.75c-0.4,-15.9 -15.87,-27.87 -34.56,-26.74z"/>
   <path class="fil3" d="M1951.23 501.18c-18.68,1.15 -33.5,14.95 -33.1,30.83l0.66 25.76c1.03,15.84 16.98,27.34 35.66,25.67 17.75,-1.59 31.72,-14.6 31.96,-29.76l-0.63 -25.76c-0.4,-15.9 -15.87,-27.87 -34.56,-26.74z"/>
   <path class="fil3" d="M1812.6 508.33c-18.71,1.16 -33.5,14.96 -33.11,30.85l0.64 25.77c0.4,15.88 15.87,27.85 34.56,26.72 18.67,-1.14 33.5,-14.93 33.1,-30.81l-0.66 -25.77c-0.37,-15.88 -15.82,-27.87 -34.51,-26.76 0,0 -0.02,0 -0.02,0z"/>
   <path class="fil3" d="M1673.95 515.49c-18.68,1.15 -33.5,14.95 -33.1,30.84l0.64 25.77c0.4,15.87 15.86,27.85 34.55,26.72 18.66,-1.13 33.49,-14.93 33.09,-30.81l-0.64 -25.77c-0.37,-15.88 -15.81,-27.87 -34.5,-26.76 -0.02,0 -0.03,0 -0.04,0.01z"/>
   <path class="fil3" d="M1535.3 522.63c-18.68,1.16 -33.49,14.96 -33.09,30.85l0.64 25.77c0.42,15.87 15.9,27.82 34.58,26.67 18.63,-1.15 33.42,-14.91 33.05,-30.76l-0.64 -25.77c-0.39,-15.89 -15.84,-27.87 -34.54,-26.76z"/>
   <path class="fil3" d="M1396.66 529.78c-18.68,1.16 -33.5,14.96 -33.1,30.84l0.65 25.77c0.42,15.88 15.9,27.84 34.57,26.68 18.64,-1.15 33.43,-14.91 33.06,-30.76l-0.65 -25.77c-0.39,-15.89 -15.84,-27.87 -34.53,-26.76z"/>
   <path class="fil3" d="M1258.02 536.94c-18.68,1.15 -33.5,14.95 -33.1,30.84l0.65 25.77c0.42,15.88 15.9,27.83 34.58,26.67 18.63,-1.14 33.42,-14.91 33.05,-30.76l-0.64 -25.77c-0.4,-15.89 -15.85,-27.87 -34.54,-26.75z"/>
   <path class="fil3" d="M1119.34 544.09c-18.68,1.13 -33.5,14.93 -33.1,30.81l0 0.03 0.64 25.77c0.42,15.88 15.9,27.83 34.58,26.68 18.64,-1.15 33.43,-14.92 33.06,-30.77l-0.65 -25.77c-0.39,-15.88 -15.84,-27.87 -34.53,-26.75z"/>
   <path class="fil3" d="M980.74 551.24c-18.68,1.13 -33.5,14.93 -33.1,30.8l0 0.04 0.64 25.77c0.43,15.88 15.91,27.83 34.58,26.68 18.64,-1.15 33.43,-14.92 33.06,-30.77l-0.65 -25.77c-0.4,-15.88 -15.85,-27.87 -34.53,-26.75z"/>
  </g>
 </g>
</svg>
