<?xml version="1.0" encoding="UTF-8"?>
<!DOCTYPE svg PUBLIC "-//W3C//DTD SVG 1.1//EN" "http://www.w3.org/Graphics/SVG/1.1/DTD/svg11.dtd">
<!-- Creator: CorelDRAW 2021.5 -->
<svg xmlns="http://www.w3.org/2000/svg" xml:space="preserve" width="17.6574mm" height="18.5209mm" version="1.1" style="shape-rendering:geometricPrecision; text-rendering:geometricPrecision; image-rendering:optimizeQuality; fill-rule:evenodd; clip-rule:evenodd"
viewBox="0 0 1758.81 1844.82"
 xmlns:xlink="http://www.w3.org/1999/xlink"
 xmlns:xodm="http://www.corel.com/coreldraw/odm/2003">
 <defs>
  <style type="text/css">
   <![CDATA[
    .fil1 {fill:#365E7D;fill-rule:nonzero}
    .fil0 {fill:#407093;fill-rule:nonzero}
    .fil2 {fill:#4A80AA;fill-rule:nonzero}
    .fil7 {fill:#8BCAFF;fill-rule:nonzero}
    .fil6 {fill:#B5DCFF;fill-rule:nonzero}
    .fil8 {fill:#DBEDFF;fill-rule:nonzero}
    .fil5 {fill:#FFA90F;fill-rule:nonzero}
    .fil4 {fill:#FFC365;fill-rule:nonzero}
    .fil3 {fill:#FFD086;fill-rule:nonzero}
   ]]>
  </style>
 </defs>
 <g id="Слой_x0020_1">
  <metadata id="CorelCorpID_0Corel-Layer"/>
  <g id="_1429478625824">
   <polygon class="fil0" points="620.04,1335.06 570.28,1311.23 274.67,1748.32 604.58,1748.32 636.36,1727.58 636.36,1350.02 "/>
   <polygon class="fil1" points="574.77,1313.39 462.9,1259.83 441.81,1259.83 125.46,1727.58 144.29,1748.32 280.62,1748.32 "/>
   <path class="fil2" d="M695.76 1727.58l-436.23 0c-19.82,0 -35.89,16.07 -35.89,35.89l0 45.47c0,19.81 16.07,35.88 35.88,35.88l436.24 0c19.81,0 35.88,-16.07 35.88,-35.88l0 -45.47c0,-19.82 -16.07,-35.89 -35.88,-35.89z"/>
   <path class="fil0" d="M231.07 1808.94l0 -45.47c0,-19.82 16.07,-35.89 35.88,-35.89l-231.07 0c-19.81,0 -35.88,16.07 -35.88,35.89l0 45.47c0,19.81 16.07,35.88 35.88,35.88l231.07 0c-19.82,0 -35.88,-16.07 -35.88,-35.88z"/>
   <path class="fil2" d="M559.75 1053.73c-13.43,27.7 -21.01,58.77 -21.01,91.62 0,89.79 56.22,166.38 135.35,196.67 33.98,-10.64 64.17,-29.84 88.01,-55.12l0 -45.88 -202.35 -187.29z"/>
   <path class="fil0" d="M542.28 1146.06c0,-32.09 7.42,-62.43 20.57,-89.48l-64.69 -59.87 -26.25 0c-39.68,37.44 -64.5,90.48 -64.5,149.35 0,113.4 91.93,205.34 205.33,205.34 23.63,0 46.28,-4.05 67.39,-11.41 -80.25,-27.92 -137.87,-104.17 -137.87,-193.94z"/>
   <path class="fil3" d="M1734.43 24.37c-32.49,-32.49 -85.17,-32.49 -117.67,0l-79.4 79.41 0 10.06 99.1 103.31 18.57 4.29 79.4 -79.41c32.49,-32.49 32.49,-85.16 0,-117.67z"/>
   <path class="fil4" d="M1756.39 63.65c-3.47,-14.38 -10.73,-28.04 -21.95,-39.28 -32.49,-32.49 -85.17,-32.49 -117.67,0l-79.4 79.41 0 10.06 52.54 54.77c31.33,-32.59 62.42,-64.76 78.42,-80.76 26.66,-26.65 65.61,-26.86 88.05,-24.2z"/>
   <path class="fil1" d="M1462.6 235.89c-0.92,0 -1.83,-0.05 -2.77,-0.14l-917.56 -90.31c-15.3,-1.5 -26.49,-15.13 -24.97,-30.43 1.5,-15.31 15.13,-26.48 30.43,-24.98l917.56 90.31c15.3,1.5 26.49,15.12 24.98,30.43 -1.42,14.37 -13.53,25.12 -27.67,25.12z"/>
   <path class="fil0" d="M807.66 407.66c-12.35,0 -23.64,-8.28 -26.91,-20.79 -3.89,-14.87 5,-30.09 19.87,-34l654.91 -171.77c14.87,-3.89 30.09,4.99 33.99,19.86 3.9,14.87 -4.99,30.09 -19.86,34l-654.91 171.78c-2.37,0.62 -4.75,0.92 -7.08,0.92z"/>
   <path class="fil1" d="M1640.46 1242.25c-14.15,0 -26.27,-10.75 -27.67,-25.13l-89.76 -918.14c-1.49,-15.29 9.7,-28.92 25,-30.41 15.3,-1.42 28.92,9.7 30.41,25l89.76 918.13c1.49,15.3 -9.69,28.92 -25,30.42 -0.92,0.08 -1.83,0.13 -2.74,0.13z"/>
   <path class="fil0" d="M1376.36 981.65c-2.36,0 -4.76,-0.31 -7.15,-0.94 -14.86,-3.94 -23.72,-19.18 -19.77,-34.06l174.3 -657.44c3.94,-14.86 19.17,-23.7 34.05,-19.77 14.86,3.94 23.72,19.18 19.77,34.05l-174.3 657.44c-3.31,12.47 -14.57,20.72 -26.89,20.72z"/>
   <polygon class="fil4" points="1457.57,183.55 1537.18,103.94 1654.83,221.6 1575.22,301.19 "/>
   <path class="fil5" d="M1518.04 243.67c19.13,-20.03 49.01,-51.28 77.9,-81.32l-58.57 -58.57 -79.62 79.62 60.28 60.27z"/>
   <path class="fil2" d="M1593.15 346.62c-7.13,0 -14.25,-2.72 -19.69,-8.16l-153.11 -153.11c-10.87,-10.88 -10.87,-28.5 0,-39.37 10.88,-10.87 28.5,-10.87 39.37,0l153.11 153.11c10.88,10.87 10.88,28.5 0,39.37 -5.44,5.44 -12.56,8.16 -19.68,8.16z"/>
   <path class="fil6" d="M1611.12 1292.37l-932.19 -940.26c-123.58,279.01 -145.05,578.52 -52.52,836.79 255.52,230.49 637.22,265.89 988.61,121l-3.9 -17.53z"/>
   <path class="fil7" d="M683.89 357.11l-213.57 -215.43 -21.41 2.11c-150.48,364.94 -106.54,762.59 148.48,1017.61 15.45,15.45 31.44,30.11 47.89,44.02 -107.51,-257.97 -90.04,-564.79 38.6,-848.31z"/>
   <path class="fil8" d="M1696.3 1225.54l-945.43 -945.43c-9.3,1.43 -18.26,5.67 -25.42,12.83l-41.13 41.13c-8.83,8.83 -13.22,20.36 -13.35,31.94l942.43 942.43c14.01,14 36.74,14 50.75,0l32.15 -32.15c14,-14.01 14,-36.74 0,-50.74z"/>
   <path class="fil6" d="M685.75 334.76l40.26 -40.26c7.42,-7.41 16.78,-11.66 26.45,-12.81l-219.17 -219.17c-14.01,-14.01 -36.74,-14.01 -50.75,0l-32.15 32.15c-14.01,14 -14.01,36.73 0,50.74l222.25 222.25c-0.3,-11.87 4.04,-23.85 13.11,-32.91z"/>
  </g>
 </g>
</svg>
