<?xml version="1.0" encoding="UTF-8"?>
<!DOCTYPE svg PUBLIC "-//W3C//DTD SVG 1.1//EN" "http://www.w3.org/Graphics/SVG/1.1/DTD/svg11.dtd">
<!-- Creator: CorelDRAW 2021.5 -->
<svg xmlns="http://www.w3.org/2000/svg" xml:space="preserve" width="13.2292mm" height="13.2292mm" version="1.1" style="shape-rendering:geometricPrecision; text-rendering:geometricPrecision; image-rendering:optimizeQuality; fill-rule:evenodd; clip-rule:evenodd"
viewBox="0 0 1322.92 1322.92"
 xmlns:xlink="http://www.w3.org/1999/xlink"
 xmlns:xodm="http://www.corel.com/coreldraw/odm/2003">
 <defs>
  <style type="text/css">
   <![CDATA[
    .fil1 {fill:#9FACBA;fill-rule:nonzero}
    .fil0 {fill:#B6C4CF;fill-rule:nonzero}
    .fil2 {fill:#F8F7F7;fill-rule:nonzero}
   ]]>
  </style>
 </defs>
 <g id="Слой_x0020_1">
  <metadata id="CorelCorpID_0Corel-Layer"/>
  <g id="_1429478534864">
   <path class="fil0" d="M1322.92 736.82l0 -150.72c0,-29.54 -23.95,-53.49 -53.5,-53.49l-57.64 0c-23.05,0 -43.5,-14.77 -50.75,-36.65 -8.07,-24.38 -17.87,-47.96 -29.27,-70.61 -10.37,-20.62 -6.4,-45.56 9.92,-61.89l40.79 -40.78c20.89,-20.89 20.89,-54.76 0,-75.66l-106.57 -106.57c-20.9,-20.89 -54.77,-20.89 -75.66,0l-40.79 40.78c-16.32,16.33 -41.26,20.3 -61.89,9.92 -22.64,-11.39 -46.23,-21.19 -70.6,-29.27 -21.88,-7.24 -36.65,-27.69 -36.65,-50.74l0 -57.64c0,-29.55 -23.95,-53.5 -53.49,-53.5l-150.72 0c-29.55,0 -53.5,23.95 -53.5,53.5l0 57.64c0,23.05 -14.77,43.5 -36.64,50.75 -24.38,8.07 -47.96,17.87 -70.61,29.27 -20.63,10.37 -45.56,6.4 -61.89,-9.92l-40.78 -40.79c-20.9,-20.89 -54.77,-20.89 -75.66,0l-106.57 106.58c-20.89,20.89 -20.89,54.76 0,75.65l40.79 40.79c16.32,16.32 20.29,41.26 9.92,61.89 -11.4,22.64 -21.2,46.22 -29.27,70.6 -5.12,15.46 -16.84,27.37 -31.4,33.03 -6.05,2.35 -9.93,6.28 -16.69,6.28l-57.64 0c-29.55,0 -53.5,23.95 -53.5,53.49l0 145.4c0,29.54 23.95,53.49 53.5,53.49l57.64 0c23.05,0 43.5,17.43 50.75,39.31 8.07,24.38 17.88,47.96 29.27,70.61 10.37,20.62 6.4,45.56 -9.92,61.89l-38.13 40.78c-20.89,20.89 -20.89,54.76 0,75.66l101.25 101.25c20.9,20.89 54.77,20.89 75.66,0l40.79 -40.79c16.32,-16.32 41.26,-20.29 61.88,-9.92 22.65,11.39 51.56,23.86 75.93,31.93 21.88,7.25 36.65,27.7 36.65,50.75l0 57.64c0,29.55 23.95,53.5 53.5,53.5l142.73 0c29.55,0 53.5,-23.95 53.5,-53.5l0 -57.64c0,-6.76 3.93,-10.64 6.27,-16.68 5.66,-14.57 17.57,-26.28 33.03,-31.4 24.38,-8.07 47.96,-17.88 70.61,-29.27 20.62,-10.38 45.56,-6.41 61.89,9.92l40.78 40.78c20.89,20.89 54.76,20.89 75.66,0l106.57 -106.57c20.89,-20.9 20.89,-54.77 0,-75.66l-40.78 -40.78c-16.33,-16.33 -20.3,-41.27 -9.93,-61.89 11.4,-22.65 21.2,-46.23 29.28,-70.61 7.24,-21.88 27.69,-36.65 50.74,-36.65l57.64 0c29.55,0 53.5,-23.95 53.5,-53.49l0 0z"/>
   <path class="fil1" d="M793.94 1192.44c-2.34,6.04 -3.62,12.59 -3.62,19.35l0 57.62c0,29.55 -23.96,53.51 -53.5,53.51l-150.72 0c-29.54,0 -53.5,-23.96 -53.5,-53.51l0 -57.62c0,-23.06 -14.77,-43.52 -36.65,-50.76 -24.36,-8.07 -47.94,-17.86 -70.59,-29.26 -20.63,-10.38 -45.57,-6.41 -61.89,9.91l-40.78 40.77c-20.89,20.9 -54.78,20.9 -75.67,0l-106.58 -106.55c-20.87,-20.89 -20.87,-54.78 0,-75.67l40.8 -40.78c16.32,-16.32 20.29,-41.26 9.91,-61.89 -11.4,-22.65 -21.19,-46.23 -29.26,-70.59 -7.24,-21.88 -27.71,-36.65 -50.76,-36.65l-57.63 0c-29.54,0 -53.5,-23.96 -53.5,-53.5l0 -150.72c0,-29.54 23.96,-53.5 53.5,-53.5l57.63 0c6.76,0 13.31,-1.28 19.35,-3.62 -0.05,3.33 -0.08,6.68 -0.08,10.04 0,360.91 292.59,653.5 653.5,653.5 3.36,0 6.71,-0.03 10.04,-0.08l0 0z"/>
   <path class="fil1" d="M661.46 1100.66c242.56,0 439.2,-196.64 439.2,-439.2 0,-242.56 -196.64,-439.2 -439.2,-439.2 -242.56,0 -439.2,196.64 -439.2,439.2 0,242.56 196.64,439.2 439.2,439.2z"/>
   <path class="fil2" d="M661.46 1007.49c191.11,0 346.03,-154.92 346.03,-346.03 0,-191.11 -154.92,-346.04 -346.03,-346.04 -191.11,0 -346.04,154.93 -346.04,346.04 0,191.11 154.93,346.03 346.04,346.03z"/>
  </g>
 </g>
</svg>
